<?xml version="1.0" standalone="no"?>
<!DOCTYPE svg PUBLIC "-//W3C//DTD SVG 20010904//EN"
 "http://www.w3.org/TR/2001/REC-SVG-20010904/DTD/svg10.dtd">
<svg version="1.0" xmlns="http://www.w3.org/2000/svg"
 width="392.000000pt" height="344.000000pt" viewBox="0 0 392.000000 344.000000"
 preserveAspectRatio="xMidYMid meet">

<g transform="translate(0.000000,344.000000) scale(0.100000,-0.100000)"
fill="#000000" stroke="none">
<path d="M1860 3364 c-359 -38 -635 -188 -836 -453 -297 -392 -317 -925 -49
-1338 76 -117 242 -280 356 -351 339 -208 755 -234 1105 -68 125 59 202 114
313 221 159 154 260 326 319 544 23 87 26 113 26 286 0 176 -2 197 -28 290
-118 430 -463 761 -883 844 -99 19 -258 32 -323 25z m105 -12 c-6 -4 -32 -14
-60 -20 -121 -30 -261 -117 -357 -221 -275 -296 -275 -765 -1 -1062 l55 -59
-123 0 c-68 -1 -202 0 -296 0 -122 1 -173 -3 -173 -10 0 -39 69 -179 145 -293
21 -32 36 -59 34 -61 -16 -13 -95 -35 -146 -41 l-61 -7 -38 69 c-53 93 -103
229 -126 343 -26 126 -21 373 11 494 112 424 443 749 856 841 109 25 298 43
280 27z m310 -102 c52 -17 97 -34 99 -39 3 -4 -44 -119 -104 -254 -61 -136
-110 -251 -110 -257 0 -5 -4 -10 -9 -10 -30 0 -52 297 -32 417 16 93 40 173
51 173 5 0 52 -14 105 -30z m194 -82 c94 -52 184 -124 265 -209 43 -44 76 -82
74 -84 -19 -18 -555 -425 -559 -425 -10 0 -89 176 -91 202 -1 13 43 122 97
243 53 121 106 239 116 263 10 23 24 42 30 42 6 0 37 -14 68 -32z m398 -375
c74 -122 124 -245 152 -371 8 -39 7 -43 -13 -47 -11 -2 -158 -25 -326 -51
l-305 -46 -31 36 c-18 20 -44 55 -60 77 -24 35 -25 42 -13 54 30 31 535 415
544 415 6 0 29 -30 52 -67z m169 -490 c7 -62 -1 -236 -15 -295 -8 -33 -7 -37
15 -42 14 -4 24 -14 24 -24 0 -25 -52 -176 -81 -234 l-23 -48 -75 0 c-90 0
-165 19 -241 58 l-55 29 -40 -34 c-172 -150 -438 -151 -618 -1 l-48 40 -36
-33 c-88 -77 -225 -107 -335 -75 -31 9 -83 36 -116 61 l-61 44 -55 -54 c-30
-30 -59 -55 -63 -55 -26 0 -183 277 -183 322 0 11 151 13 777 10 428 -1 862
-3 965 -5 102 -1 181 1 175 5 -7 4 -26 8 -43 8 -65 0 -241 74 -348 145 -56 38
-165 127 -165 136 -1 4 65 17 147 29 81 13 208 33 282 45 74 13 152 23 172 24
l37 1 7 -57z"/>
<path d="M150 768 l0 -128 29 0 c28 0 30 3 33 42 3 41 5 43 40 49 53 8 78 34
78 79 0 54 -27 74 -111 80 l-69 5 0 -127z m114 57 c9 -25 -4 -45 -30 -45 -20
0 -24 5 -24 30 0 25 4 30 24 30 13 0 26 -7 30 -15z"/>
<path d="M458 892 c-21 -2 -38 -4 -38 -6 0 -1 -18 -51 -40 -112 -22 -60 -40
-115 -40 -121 0 -8 13 -13 30 -13 23 0 31 5 36 25 6 23 11 25 59 25 48 0 54
-2 57 -22 2 -18 11 -24 36 -26 17 -2 32 1 32 7 0 15 -80 235 -88 241 -4 3 -24
4 -44 2z m9 -150 c-16 -2 -31 -2 -33 1 -2 2 4 26 13 53 l16 49 17 -50 17 -50
-30 -3z"/>
<path d="M620 768 l0 -128 65 0 65 0 0 30 c0 28 -3 30 -35 30 l-35 0 0 94 0
94 -30 4 -30 5 0 -129z"/>
<path d="M805 870 c-2 -14 -9 -56 -15 -95 -5 -38 -12 -85 -15 -102 -6 -31 -4
-33 24 -33 34 0 36 6 47 95 8 66 11 63 40 -38 13 -50 19 -58 37 -55 18 2 26
17 43 76 20 73 34 84 34 28 0 -17 3 -48 6 -68 6 -34 10 -38 35 -38 35 0 36 9
11 154 l-17 99 -33 1 c-31 1 -33 -1 -48 -54 -32 -114 -29 -113 -55 -26 -24 77
-25 79 -56 80 -27 1 -33 -3 -38 -24z"/>
<path d="M1168 871 c-17 -45 -78 -220 -78 -226 0 -3 14 -5 30 -5 23 0 33 6 40
25 8 22 15 25 59 25 44 0 49 -3 55 -25 5 -21 12 -25 41 -25 l34 0 -43 123 -44
122 -42 6 c-38 5 -43 3 -52 -20z m61 -53 c4 -13 11 -35 15 -50 6 -26 4 -28
-28 -28 l-34 0 16 50 c9 28 17 50 19 50 2 0 7 -10 12 -22z"/>
<path d="M1490 768 l0 -128 29 0 c28 0 30 3 33 42 3 41 5 43 40 49 53 8 78 34
78 79 0 54 -27 74 -111 80 l-69 5 0 -127z m114 57 c9 -25 -4 -45 -30 -45 -20
0 -24 5 -24 30 0 25 4 30 24 30 13 0 26 -7 30 -15z"/>
<path d="M1774 886 c-49 -22 -74 -61 -74 -117 0 -42 5 -55 33 -85 28 -31 42
-37 84 -41 86 -9 148 44 148 126 0 92 -105 156 -191 117z m109 -74 c38 -33 1
-112 -53 -112 -30 0 -70 39 -70 69 0 61 73 86 123 43z"/>
<path d="M2003 884 c-2 -5 -2 -62 -1 -125 l3 -114 32 -3 c31 -3 32 -3 35 45
l3 48 23 -43 c25 -47 37 -55 76 -50 l26 3 -31 47 -30 46 25 26 c29 28 34 71
12 102 -11 15 -30 20 -91 24 -50 3 -79 1 -82 -6z m121 -59 c9 -25 -4 -45 -30
-45 -20 0 -24 5 -24 30 0 25 4 30 24 30 13 0 26 -7 30 -15z"/>
<path d="M2214 891 c-2 -2 -4 -15 -4 -28 0 -18 5 -23 25 -23 24 0 24 -1 27
-97 l3 -98 33 -3 32 -3 0 100 0 101 25 0 c20 0 25 5 25 24 0 24 -3 25 -81 28
-44 2 -83 1 -85 -1z"/>
<path d="M2530 768 l0 -128 30 0 c30 0 30 1 30 55 l0 55 45 0 45 0 0 -55 c0
-54 0 -55 29 -55 l30 0 3 126 c2 69 2 127 1 128 -2 1 -16 1 -33 -2 -28 -4 -30
-7 -30 -48 l0 -44 -45 0 -45 0 0 44 c0 41 -2 44 -30 48 l-30 5 0 -129z"/>
<path d="M2864 886 c-49 -22 -74 -61 -74 -117 0 -42 5 -55 33 -85 28 -31 42
-37 84 -41 86 -9 148 44 148 126 0 92 -105 156 -191 117z m109 -74 c38 -33 1
-112 -53 -112 -30 0 -70 39 -70 69 0 61 73 86 123 43z"/>
<path d="M3123 888 c-12 -6 -27 -24 -34 -41 -18 -43 4 -78 59 -96 35 -11 43
-17 40 -35 -3 -24 -43 -35 -61 -17 -16 16 -31 13 -45 -9 -10 -17 -8 -21 18
-35 48 -25 97 -19 131 14 16 16 29 38 29 49 0 29 -37 70 -69 77 -40 9 -56 29
-36 45 12 10 21 10 42 1 29 -13 28 -14 37 16 6 19 2 25 -19 33 -33 12 -63 12
-92 -2z"/>
<path d="M3274 891 c-2 -2 -4 -15 -4 -28 0 -18 5 -23 25 -23 24 0 24 -1 27
-97 l3 -98 33 -3 32 -3 0 100 0 101 25 0 c20 0 25 5 25 24 0 24 -3 25 -81 28
-44 2 -83 1 -85 -1z"/>
<path d="M3538 893 l-68 -4 0 -124 0 -125 70 0 70 0 0 30 c0 28 -2 30 -41 30
-36 0 -40 2 -37 23 2 18 10 23 41 25 32 3 37 7 37 28 0 21 -4 24 -40 24 -33 0
-40 3 -40 20 0 17 7 20 40 20 38 0 40 2 40 30 0 17 -1 29 -2 28 -2 -1 -33 -3
-70 -5z"/>
<path d="M3657 894 c-1 -1 -1 -59 1 -128 l3 -126 65 0 64 0 0 30 c0 28 -3 30
-35 30 l-35 0 0 94 0 94 -30 4 c-17 3 -31 3 -33 2z"/>
</g>
</svg>
